# xmcd
# 
# Track frame offsets:
#     150
#     9716
#     29370
#     48885
#     72495
#     91418
#     109825
#     130645
# 
# Disc length: 1931
# 
# Revision: 0
# Processed by: cddbd v1.5.2PL0 Copyright (c) Steve Scherf et al.
# Submitted via: BonkEnc v1.0.6
# 
DISCID=64078908
DTITLE=MenoSmal! - Covers
DYEAR=2000
DGENRE=Rock
TTITLE0=Data track
TTITLE1=Wonderwall
TTITLE2=Every breath you take
TTITLE3=Hombre al agua
TTITLE4=Cerca de la revolucion
TTITLE5=I'm losing you
TTITLE6=One
TTITLE7=Live and let die
EXTD=
EXTT0=
EXTT1=
EXTT2=
EXTT3=
EXTT4=
EXTT5=
EXTT6=
EXTT7=
PLAYORDER=
